<mxfile host="app.diagrams.net" agent="Mozilla/5.0 (X11; Linux x86_64) AppleWebKit/537.36 (KHTML, like Gecko) Chrome/137.0.0.0 Safari/537.36" version="27.1.6" pages="2">
  <diagram name="第 1 页" id="oaW-cxM7JzAe5mLxtj9z">
    <mxGraphModel dx="1019" dy="566" grid="0" gridSize="10" guides="1" tooltips="1" connect="1" arrows="1" fold="1" page="1" pageScale="1" pageWidth="850" pageHeight="1100" math="0" shadow="0">
      <root>
        <mxCell id="0" />
        <mxCell id="1" parent="0" />
        <mxCell id="moQrrv2r5H9GA5ccFNdd-1" value="" style="shape=partialRectangle;whiteSpace=wrap;html=1;bottom=1;right=1;left=1;top=0;fillColor=none;routingCenterX=-0.5;" vertex="1" parent="1">
          <mxGeometry x="300" y="310" width="280" height="130" as="geometry" />
        </mxCell>
        <mxCell id="moQrrv2r5H9GA5ccFNdd-6" value="" style="endArrow=none;html=1;rounded=0;entryX=0;entryY=0;entryDx=0;entryDy=0;" edge="1" parent="1" target="moQrrv2r5H9GA5ccFNdd-1">
          <mxGeometry width="50" height="50" relative="1" as="geometry">
            <mxPoint x="70" y="310" as="sourcePoint" />
            <mxPoint x="450" y="370" as="targetPoint" />
          </mxGeometry>
        </mxCell>
        <mxCell id="moQrrv2r5H9GA5ccFNdd-7" value="" style="endArrow=none;html=1;rounded=0;entryX=1;entryY=0;entryDx=0;entryDy=0;" edge="1" parent="1" target="moQrrv2r5H9GA5ccFNdd-1">
          <mxGeometry width="50" height="50" relative="1" as="geometry">
            <mxPoint x="810" y="310" as="sourcePoint" />
            <mxPoint x="450" y="370" as="targetPoint" />
          </mxGeometry>
        </mxCell>
        <mxCell id="moQrrv2r5H9GA5ccFNdd-8" value="" style="endArrow=none;html=1;rounded=0;exitX=0;exitY=0.75;exitDx=0;exitDy=0;entryX=1;entryY=0.75;entryDx=0;entryDy=0;" edge="1" parent="1" source="moQrrv2r5H9GA5ccFNdd-1" target="moQrrv2r5H9GA5ccFNdd-1">
          <mxGeometry width="50" height="50" relative="1" as="geometry">
            <mxPoint x="400" y="420" as="sourcePoint" />
            <mxPoint x="450" y="370" as="targetPoint" />
          </mxGeometry>
        </mxCell>
        <mxCell id="moQrrv2r5H9GA5ccFNdd-9" value="" style="endArrow=none;html=1;rounded=0;exitX=0;exitY=0.5;exitDx=0;exitDy=0;entryX=1;entryY=0.5;entryDx=0;entryDy=0;" edge="1" parent="1" source="moQrrv2r5H9GA5ccFNdd-1" target="moQrrv2r5H9GA5ccFNdd-1">
          <mxGeometry width="50" height="50" relative="1" as="geometry">
            <mxPoint x="400" y="420" as="sourcePoint" />
            <mxPoint x="450" y="370" as="targetPoint" />
          </mxGeometry>
        </mxCell>
        <mxCell id="moQrrv2r5H9GA5ccFNdd-10" value="" style="endArrow=none;html=1;rounded=0;entryX=1;entryY=0.25;entryDx=0;entryDy=0;exitX=0;exitY=0.25;exitDx=0;exitDy=0;" edge="1" parent="1" source="moQrrv2r5H9GA5ccFNdd-1" target="moQrrv2r5H9GA5ccFNdd-1">
          <mxGeometry width="50" height="50" relative="1" as="geometry">
            <mxPoint x="290" y="340" as="sourcePoint" />
            <mxPoint x="450" y="370" as="targetPoint" />
          </mxGeometry>
        </mxCell>
        <mxCell id="moQrrv2r5H9GA5ccFNdd-14" value="" style="ellipse;whiteSpace=wrap;html=1;aspect=fixed;" vertex="1" parent="1">
          <mxGeometry x="420" y="80" width="40" height="40" as="geometry" />
        </mxCell>
        <mxCell id="moQrrv2r5H9GA5ccFNdd-15" value="" style="edgeStyle=segmentEdgeStyle;endArrow=classic;html=1;curved=0;rounded=0;endSize=8;startSize=8;startArrow=blockThin;startFill=1;" edge="1" parent="1">
          <mxGeometry width="50" height="50" relative="1" as="geometry">
            <mxPoint x="490" y="100" as="sourcePoint" />
            <mxPoint x="440" y="150" as="targetPoint" />
          </mxGeometry>
        </mxCell>
        <mxCell id="moQrrv2r5H9GA5ccFNdd-17" value="" style="rounded=0;whiteSpace=wrap;html=1;fillColor=#60a917;fontColor=#ffffff;strokeColor=#2D7600;" vertex="1" parent="1">
          <mxGeometry x="580" y="300" width="30" height="10" as="geometry" />
        </mxCell>
        <mxCell id="moQrrv2r5H9GA5ccFNdd-19" value="" style="rounded=0;whiteSpace=wrap;html=1;fillColor=#1ba1e2;fontColor=#ffffff;strokeColor=#006EAF;" vertex="1" parent="1">
          <mxGeometry x="270" y="300" width="30" height="10" as="geometry" />
        </mxCell>
        <mxCell id="moQrrv2r5H9GA5ccFNdd-20" value="" style="rounded=0;whiteSpace=wrap;html=1;fillColor=#0050ef;fontColor=#ffffff;strokeColor=#001DBC;" vertex="1" parent="1">
          <mxGeometry x="570" y="310" width="10" height="30" as="geometry" />
        </mxCell>
        <mxCell id="moQrrv2r5H9GA5ccFNdd-21" value="" style="rounded=0;whiteSpace=wrap;html=1;fillColor=#0050ef;fontColor=#ffffff;strokeColor=#001DBC;" vertex="1" parent="1">
          <mxGeometry x="300" y="310" width="10" height="30" as="geometry" />
        </mxCell>
        <mxCell id="moQrrv2r5H9GA5ccFNdd-22" value="" style="endArrow=none;html=1;rounded=0;" edge="1" parent="1">
          <mxGeometry width="50" height="50" relative="1" as="geometry">
            <mxPoint x="130" y="20" as="sourcePoint" />
            <mxPoint x="780" y="20" as="targetPoint" />
          </mxGeometry>
        </mxCell>
        <mxCell id="moQrrv2r5H9GA5ccFNdd-24" value="机器人" style="text;html=1;align=center;verticalAlign=middle;whiteSpace=wrap;rounded=0;" vertex="1" parent="1">
          <mxGeometry x="410" y="50" width="60" height="30" as="geometry" />
        </mxCell>
        <mxCell id="moQrrv2r5H9GA5ccFNdd-25" value="右" style="text;html=1;align=center;verticalAlign=middle;whiteSpace=wrap;rounded=0;" vertex="1" parent="1">
          <mxGeometry x="565" y="270" width="60" height="30" as="geometry" />
        </mxCell>
        <mxCell id="moQrrv2r5H9GA5ccFNdd-26" value="左" style="text;html=1;align=center;verticalAlign=middle;whiteSpace=wrap;rounded=0;" vertex="1" parent="1">
          <mxGeometry x="255" y="270" width="60" height="30" as="geometry" />
        </mxCell>
        <mxCell id="moQrrv2r5H9GA5ccFNdd-27" value="垂直" style="text;html=1;align=center;verticalAlign=middle;whiteSpace=wrap;rounded=0;" vertex="1" parent="1">
          <mxGeometry x="520" y="310" width="60" height="30" as="geometry" />
        </mxCell>
        <mxCell id="moQrrv2r5H9GA5ccFNdd-28" value="垂直" style="text;html=1;align=center;verticalAlign=middle;whiteSpace=wrap;rounded=0;" vertex="1" parent="1">
          <mxGeometry x="300" y="310" width="60" height="30" as="geometry" />
        </mxCell>
        <mxCell id="moQrrv2r5H9GA5ccFNdd-29" value="" style="endArrow=none;dashed=1;html=1;dashPattern=1 3;strokeWidth=2;rounded=0;" edge="1" parent="1">
          <mxGeometry width="50" height="50" relative="1" as="geometry">
            <mxPoint x="270" y="310" as="sourcePoint" />
            <mxPoint x="610" y="310" as="targetPoint" />
          </mxGeometry>
        </mxCell>
        <mxCell id="moQrrv2r5H9GA5ccFNdd-30" value="" style="endArrow=none;dashed=1;html=1;dashPattern=1 3;strokeWidth=2;rounded=0;" edge="1" parent="1">
          <mxGeometry width="50" height="50" relative="1" as="geometry">
            <mxPoint x="270" y="300" as="sourcePoint" />
            <mxPoint x="610" y="300" as="targetPoint" />
          </mxGeometry>
        </mxCell>
        <mxCell id="moQrrv2r5H9GA5ccFNdd-31" value="" style="endArrow=none;dashed=1;html=1;dashPattern=1 3;strokeWidth=2;rounded=0;" edge="1" parent="1">
          <mxGeometry width="50" height="50" relative="1" as="geometry">
            <mxPoint x="270" y="290" as="sourcePoint" />
            <mxPoint x="610" y="290" as="targetPoint" />
          </mxGeometry>
        </mxCell>
        <mxCell id="moQrrv2r5H9GA5ccFNdd-32" value="" style="endArrow=none;dashed=1;html=1;dashPattern=1 3;strokeWidth=2;rounded=0;" edge="1" parent="1">
          <mxGeometry width="50" height="50" relative="1" as="geometry">
            <mxPoint x="270" y="320" as="sourcePoint" />
            <mxPoint x="610" y="320" as="targetPoint" />
          </mxGeometry>
        </mxCell>
        <mxCell id="moQrrv2r5H9GA5ccFNdd-33" value="" style="endArrow=none;dashed=1;html=1;dashPattern=1 3;strokeWidth=2;rounded=0;" edge="1" parent="1">
          <mxGeometry width="50" height="50" relative="1" as="geometry">
            <mxPoint x="270" y="330" as="sourcePoint" />
            <mxPoint x="610" y="330" as="targetPoint" />
          </mxGeometry>
        </mxCell>
        <mxCell id="moQrrv2r5H9GA5ccFNdd-34" value="跌落禁行区域(台阶)" style="text;html=1;align=center;verticalAlign=middle;whiteSpace=wrap;rounded=0;" vertex="1" parent="1">
          <mxGeometry x="385" y="350" width="110" height="30" as="geometry" />
        </mxCell>
        <mxCell id="moQrrv2r5H9GA5ccFNdd-35" value="可通行区域" style="text;html=1;align=center;verticalAlign=middle;whiteSpace=wrap;rounded=0;" vertex="1" parent="1">
          <mxGeometry x="650" y="90" width="80" height="30" as="geometry" />
        </mxCell>
        <mxCell id="moQrrv2r5H9GA5ccFNdd-36" value="跌落点云" style="text;html=1;align=center;verticalAlign=middle;whiteSpace=wrap;rounded=0;" vertex="1" parent="1">
          <mxGeometry x="400" y="260" width="80" height="30" as="geometry" />
        </mxCell>
      </root>
    </mxGraphModel>
  </diagram>
  <diagram id="Uniu32sniUKPQdkgWoRt" name="第 2 页">
    <mxGraphModel dx="1146" dy="637" grid="0" gridSize="10" guides="1" tooltips="1" connect="1" arrows="1" fold="1" page="1" pageScale="1" pageWidth="850" pageHeight="1100" math="0" shadow="0">
      <root>
        <mxCell id="0" />
        <mxCell id="1" parent="0" />
        <mxCell id="816XI_aq6dK8sHuZ7ELW-1" value="" style="rounded=0;whiteSpace=wrap;html=1;fillColor=#1ba1e2;fontColor=#ffffff;strokeColor=#006EAF;" vertex="1" parent="1">
          <mxGeometry x="262" y="99" width="292" height="127" as="geometry" />
        </mxCell>
        <mxCell id="3XAIczwIwYPzr7UfGXEG-1" value="" style="rounded=0;whiteSpace=wrap;html=1;" vertex="1" parent="1">
          <mxGeometry x="282" y="112.5" width="29" height="100" as="geometry" />
        </mxCell>
        <mxCell id="3XAIczwIwYPzr7UfGXEG-2" value="" style="rounded=0;whiteSpace=wrap;html=1;" vertex="1" parent="1">
          <mxGeometry x="366" y="112.5" width="29" height="100" as="geometry" />
        </mxCell>
        <mxCell id="3XAIczwIwYPzr7UfGXEG-3" value="" style="rounded=0;whiteSpace=wrap;html=1;" vertex="1" parent="1">
          <mxGeometry x="500" y="112.5" width="29" height="100" as="geometry" />
        </mxCell>
        <mxCell id="3XAIczwIwYPzr7UfGXEG-5" value="" style="shape=curlyBracket;whiteSpace=wrap;html=1;rounded=1;labelPosition=left;verticalLabelPosition=middle;align=right;verticalAlign=middle;rotation=90;" vertex="1" parent="1">
          <mxGeometry x="329" y="45" width="20" height="86" as="geometry" />
        </mxCell>
        <mxCell id="3XAIczwIwYPzr7UfGXEG-6" value="" style="shape=curlyBracket;whiteSpace=wrap;html=1;rounded=1;labelPosition=left;verticalLabelPosition=middle;align=right;verticalAlign=middle;rotation=90;" vertex="1" parent="1">
          <mxGeometry x="439" y="21" width="20" height="134" as="geometry" />
        </mxCell>
        <mxCell id="3XAIczwIwYPzr7UfGXEG-7" value="" style="shape=curlyBracket;whiteSpace=wrap;html=1;rounded=1;labelPosition=left;verticalLabelPosition=middle;align=right;verticalAlign=middle;rotation=-90;" vertex="1" parent="1">
          <mxGeometry x="504" y="228" width="20" height="28" as="geometry" />
        </mxCell>
        <mxCell id="3XAIczwIwYPzr7UfGXEG-8" value="0.12m" style="text;html=1;align=center;verticalAlign=middle;whiteSpace=wrap;rounded=0;" vertex="1" parent="1">
          <mxGeometry x="309" y="45" width="60" height="30" as="geometry" />
        </mxCell>
        <mxCell id="3XAIczwIwYPzr7UfGXEG-9" value="0.18m" style="text;html=1;align=center;verticalAlign=middle;whiteSpace=wrap;rounded=0;" vertex="1" parent="1">
          <mxGeometry x="419" y="47" width="60" height="30" as="geometry" />
        </mxCell>
        <mxCell id="3XAIczwIwYPzr7UfGXEG-10" value="0.05m" style="text;html=1;align=center;verticalAlign=middle;whiteSpace=wrap;rounded=0;" vertex="1" parent="1">
          <mxGeometry x="487" y="248" width="60" height="30" as="geometry" />
        </mxCell>
        <mxCell id="3XAIczwIwYPzr7UfGXEG-11" value="左激光贴" style="text;html=1;align=center;verticalAlign=middle;whiteSpace=wrap;rounded=0;" vertex="1" parent="1">
          <mxGeometry x="378" y="268" width="60" height="30" as="geometry" />
        </mxCell>
        <mxCell id="3XAIczwIwYPzr7UfGXEG-12" value="" style="rounded=0;whiteSpace=wrap;html=1;fillColor=#60a917;fontColor=#ffffff;strokeColor=#2D7600;" vertex="1" parent="1">
          <mxGeometry x="262" y="374" width="292" height="127" as="geometry" />
        </mxCell>
        <mxCell id="3XAIczwIwYPzr7UfGXEG-13" value="" style="rounded=0;whiteSpace=wrap;html=1;" vertex="1" parent="1">
          <mxGeometry x="282" y="387.5" width="29" height="100" as="geometry" />
        </mxCell>
        <mxCell id="3XAIczwIwYPzr7UfGXEG-14" value="" style="rounded=0;whiteSpace=wrap;html=1;" vertex="1" parent="1">
          <mxGeometry x="430" y="390" width="29" height="100" as="geometry" />
        </mxCell>
        <mxCell id="3XAIczwIwYPzr7UfGXEG-15" value="" style="rounded=0;whiteSpace=wrap;html=1;" vertex="1" parent="1">
          <mxGeometry x="500" y="387.5" width="29" height="100" as="geometry" />
        </mxCell>
        <mxCell id="3XAIczwIwYPzr7UfGXEG-16" value="" style="shape=curlyBracket;whiteSpace=wrap;html=1;rounded=1;labelPosition=left;verticalLabelPosition=middle;align=right;verticalAlign=middle;rotation=90;" vertex="1" parent="1">
          <mxGeometry x="361" y="288" width="20" height="150" as="geometry" />
        </mxCell>
        <mxCell id="3XAIczwIwYPzr7UfGXEG-17" value="" style="shape=curlyBracket;whiteSpace=wrap;html=1;rounded=1;labelPosition=left;verticalLabelPosition=middle;align=right;verticalAlign=middle;rotation=90;" vertex="1" parent="1">
          <mxGeometry x="471.5" y="328.5" width="20" height="69" as="geometry" />
        </mxCell>
        <mxCell id="3XAIczwIwYPzr7UfGXEG-18" value="" style="shape=curlyBracket;whiteSpace=wrap;html=1;rounded=1;labelPosition=left;verticalLabelPosition=middle;align=right;verticalAlign=middle;rotation=-90;" vertex="1" parent="1">
          <mxGeometry x="504" y="503" width="20" height="28" as="geometry" />
        </mxCell>
        <mxCell id="3XAIczwIwYPzr7UfGXEG-19" value="0.18m" style="text;html=1;align=center;verticalAlign=middle;whiteSpace=wrap;rounded=0;" vertex="1" parent="1">
          <mxGeometry x="343" y="321" width="60" height="30" as="geometry" />
        </mxCell>
        <mxCell id="3XAIczwIwYPzr7UfGXEG-20" value="0.12m" style="text;html=1;align=center;verticalAlign=middle;whiteSpace=wrap;rounded=0;" vertex="1" parent="1">
          <mxGeometry x="451.5" y="323" width="60" height="30" as="geometry" />
        </mxCell>
        <mxCell id="3XAIczwIwYPzr7UfGXEG-21" value="0.05m" style="text;html=1;align=center;verticalAlign=middle;whiteSpace=wrap;rounded=0;" vertex="1" parent="1">
          <mxGeometry x="487" y="523" width="60" height="30" as="geometry" />
        </mxCell>
        <mxCell id="3XAIczwIwYPzr7UfGXEG-22" value="右激光贴" style="text;html=1;align=center;verticalAlign=middle;whiteSpace=wrap;rounded=0;" vertex="1" parent="1">
          <mxGeometry x="378" y="543" width="60" height="30" as="geometry" />
        </mxCell>
        <mxCell id="3XAIczwIwYPzr7UfGXEG-24" value="" style="rounded=0;whiteSpace=wrap;html=1;fillColor=#0050ef;fontColor=#ffffff;strokeColor=#001DBC;" vertex="1" parent="1">
          <mxGeometry x="262" y="653" width="292" height="127" as="geometry" />
        </mxCell>
        <mxCell id="3XAIczwIwYPzr7UfGXEG-25" value="" style="rounded=0;whiteSpace=wrap;html=1;" vertex="1" parent="1">
          <mxGeometry x="282" y="666.5" width="29" height="100" as="geometry" />
        </mxCell>
        <mxCell id="3XAIczwIwYPzr7UfGXEG-26" value="" style="rounded=0;whiteSpace=wrap;html=1;" vertex="1" parent="1">
          <mxGeometry x="393.5" y="666.5" width="29" height="100" as="geometry" />
        </mxCell>
        <mxCell id="3XAIczwIwYPzr7UfGXEG-27" value="" style="rounded=0;whiteSpace=wrap;html=1;" vertex="1" parent="1">
          <mxGeometry x="500" y="666.5" width="29" height="100" as="geometry" />
        </mxCell>
        <mxCell id="3XAIczwIwYPzr7UfGXEG-28" value="" style="shape=curlyBracket;whiteSpace=wrap;html=1;rounded=1;labelPosition=left;verticalLabelPosition=middle;align=right;verticalAlign=middle;rotation=90;" vertex="1" parent="1">
          <mxGeometry x="342" y="586" width="20" height="112" as="geometry" />
        </mxCell>
        <mxCell id="3XAIczwIwYPzr7UfGXEG-29" value="" style="shape=curlyBracket;whiteSpace=wrap;html=1;rounded=1;labelPosition=left;verticalLabelPosition=middle;align=right;verticalAlign=middle;rotation=90;" vertex="1" parent="1">
          <mxGeometry x="451.75" y="587.75" width="20" height="108.5" as="geometry" />
        </mxCell>
        <mxCell id="3XAIczwIwYPzr7UfGXEG-30" value="" style="shape=curlyBracket;whiteSpace=wrap;html=1;rounded=1;labelPosition=left;verticalLabelPosition=middle;align=right;verticalAlign=middle;rotation=-90;" vertex="1" parent="1">
          <mxGeometry x="504" y="782" width="20" height="28" as="geometry" />
        </mxCell>
        <mxCell id="3XAIczwIwYPzr7UfGXEG-31" value="0.15m" style="text;html=1;align=center;verticalAlign=middle;whiteSpace=wrap;rounded=0;" vertex="1" parent="1">
          <mxGeometry x="322" y="602" width="60" height="30" as="geometry" />
        </mxCell>
        <mxCell id="3XAIczwIwYPzr7UfGXEG-32" value="0.15m" style="text;html=1;align=center;verticalAlign=middle;whiteSpace=wrap;rounded=0;" vertex="1" parent="1">
          <mxGeometry x="431.5" y="602" width="60" height="30" as="geometry" />
        </mxCell>
        <mxCell id="3XAIczwIwYPzr7UfGXEG-33" value="0.05m" style="text;html=1;align=center;verticalAlign=middle;whiteSpace=wrap;rounded=0;" vertex="1" parent="1">
          <mxGeometry x="487" y="802" width="60" height="30" as="geometry" />
        </mxCell>
        <mxCell id="3XAIczwIwYPzr7UfGXEG-34" value="垂直激光贴" style="text;html=1;align=center;verticalAlign=middle;whiteSpace=wrap;rounded=0;" vertex="1" parent="1">
          <mxGeometry x="378" y="822" width="67" height="30" as="geometry" />
        </mxCell>
      </root>
    </mxGraphModel>
  </diagram>
</mxfile>
